<?xml version="1.0" encoding="UTF-8" standalone="no"?>
<svg
   xmlns:dc="http://purl.org/dc/elements/1.1/"
   xmlns:cc="http://creativecommons.org/ns#"
   xmlns:rdf="http://www.w3.org/1999/02/22-rdf-syntax-ns#"
   xmlns:svg="http://www.w3.org/2000/svg"
   xmlns="http://www.w3.org/2000/svg"
   xmlns:sodipodi="http://sodipodi.sourceforge.net/DTD/sodipodi-0.dtd"
   xmlns:inkscape="http://www.inkscape.org/namespaces/inkscape"
   version="1.0"
   width="256"
   height="256"
   viewBox="0 0 256 256"
   id="svg1"
   sodipodi:docname="clipboard-new.svg"
   inkscape:version="0.92.4 (5da689c313, 2019-01-14)"
   enable-background="new">
  <metadata
     id="metadata2">
    <rdf:RDF>
      <cc:Work
         rdf:about="">
        <dc:format>image/svg+xml</dc:format>
        <dc:type
           rdf:resource="http://purl.org/dc/dcmitype/StillImage" />
        <dc:title></dc:title>
      </cc:Work>
    </rdf:RDF>
  </metadata>
  <defs
     id="defs4" />
  <sodipodi:namedview
     pagecolor="#ffffff"
     bordercolor="#666666"
     borderopacity="1"
     objecttolerance="10"
     gridtolerance="10"
     guidetolerance="10"
     inkscape:pageopacity="0"
     inkscape:pageshadow="2"
     inkscape:window-width="1920"
     inkscape:window-height="1027"
     showgrid="false"
     inkscape:pagecheckerboard="true"
     inkscape:zoom="3.0820312"
     inkscape:cx="70.846032"
     inkscape:cy="128"
     inkscape:window-x="0"
     inkscape:window-y="36"
     inkscape:window-maximized="1"
     inkscape:current-layer="svg1"
     showguides="true"
     id="namedview10">
    <sodipodi:guide
       position="385.121,128"
       orientation="0,1"
       inkscape:locked="false"
       inkscape:label=""
       inkscape:color="rgb(0,0,255)"
       id="guide6" />
    <sodipodi:guide
       position="128,0"
       orientation="1,0"
       inkscape:locked="false"
       inkscape:label=""
       inkscape:color="rgb(0,0,255)"
       id="guide8" />
  </sodipodi:namedview>
  <path
     style="color:#000000;font-style:normal;font-variant:normal;font-weight:normal;font-stretch:normal;font-size:medium;line-height:normal;font-family:sans-serif;font-variant-ligatures:normal;font-variant-position:normal;font-variant-caps:normal;font-variant-numeric:normal;font-variant-alternates:normal;font-feature-settings:normal;text-indent:0;text-align:start;text-decoration:none;text-decoration-line:none;text-decoration-style:solid;text-decoration-color:#000000;letter-spacing:normal;word-spacing:normal;text-transform:none;writing-mode:lr-tb;direction:ltr;text-orientation:mixed;dominant-baseline:auto;baseline-shift:baseline;text-anchor:start;white-space:normal;shape-padding:0;clip-rule:nonzero;display:inline;overflow:visible;visibility:visible;opacity:1;isolation:auto;mix-blend-mode:normal;color-interpolation:sRGB;color-interpolation-filters:linearRGB;solid-color:#000000;solid-opacity:1;vector-effect:none;fill:#000003;fill-opacity:1;fill-rule:nonzero;stroke:none;stroke-width:17.01947212;stroke-linecap:square;stroke-linejoin:round;stroke-miterlimit:4;stroke-dasharray:none;stroke-dashoffset:0;stroke-opacity:1;color-rendering:auto;image-rendering:auto;shape-rendering:auto;text-rendering:auto;enable-background:accumulate"
     d="M 72.509766,0 A 8.510587,8.510587 0 0 0 64,8.5097656 V 19.490234 H 28 A 8.510587,8.510587 0 0 0 19.490234,28 V 248 A 8.510587,8.510587 0 0 0 28,256.50977 H 228 A 8.510587,8.510587 0 0 0 236.50977,248 V 28 A 8.510587,8.510587 0 0 0 228,19.490234 H 192 V 8.5097656 A 8.510587,8.510587 0 0 0 183.49023,0 Z M 81.019531,17.019531 H 174.98047 V 28 46.980469 H 81.019531 V 28 Z M 36.509766,36.509766 H 64 V 55.490234 A 8.510587,8.510587 0 0 0 64.042969,56.339844 8.510587,8.510587 0 0 0 64.169922,57.181641 8.510587,8.510587 0 0 0 64.671875,58.804688 8.510587,8.510587 0 0 0 65.486328,60.294922 8.510587,8.510587 0 0 0 66.001953,60.972656 8.510587,8.510587 0 0 0 67.220703,62.15625 8.510587,8.510587 0 0 0 68.650391,63.074219 8.510587,8.510587 0 0 0 69.427734,63.421875 8.510587,8.510587 0 0 0 71.064453,63.876953 8.510587,8.510587 0 0 0 72.509766,64 H 183.49023 A 8.510587,8.510587 0 0 0 185.18164,63.830078 8.510587,8.510587 0 0 0 186.80469,63.328125 8.510587,8.510587 0 0 0 187.57031,62.957031 8.510587,8.510587 0 0 0 188.29492,62.513672 8.510587,8.510587 0 0 0 190.65039,60.087891 8.510587,8.510587 0 0 0 191.68945,57.765625 8.510587,8.510587 0 0 0 192,55.490234 V 36.509766 H 219.49023 V 239.49023 H 36.509766 Z"
     id="rect820-3"
     inkscape:connector-curvature="0"
     inkscape:label="rect820-3" />
</svg>
