<svg xmlns="http://www.w3.org/2000/svg" width="256" height="256" viewBox="0 0 256 256" style="fill:none"><path d="M7.481 110.244a11.598 11.598 0 0 1 15.229 6.1l-10.66 4.57 10.671-4.57v-.01c0-.012 0 0 0 0l.035.104.244.522c.232.487.591 1.252 1.09 2.25a135.53 135.53 0 0 0 4.64 8.455c4.221 7.098 10.635 16.539 19.368 25.945a138.785 138.785 0 0 0 6.843 6.866c17.19 16.11 41.21 30.028 73.093 30.028 14.022 0 26.42-2.679 37.346-6.982 14.232-5.602 26.143-14.034 35.909-23.173a151.393 151.393 0 0 0 31.698-43.204l.313-.673.058-.127a11.598 11.598 0 0 1 21.318 9.14l-10.659-4.57 10.67 4.57-.034.057-.047.093-.127.302-.464 1.009a162.898 162.898 0 0 1-8.595 15.634 178.243 178.243 0 0 1-19.844 26.166l9.244 9.244a11.6 11.6 0 0 1-16.4 16.411l-9.743-9.742a136.976 136.976 0 0 1-22.002 14.567l9.07 13.941a11.598 11.598 0 1 1-19.439 12.654l-11.436-17.56a123.483 123.483 0 0 1-25.238 4.918v17.92a11.598 11.598 0 0 1-23.196 0V213.19c-8.99-.812-17.398-2.517-25.25-4.93l-11.424 17.56a11.598 11.598 0 0 1-19.439-12.642l9.07-13.953c-8.119-4.291-15.449-9.278-22.002-14.579l-9.743 9.743a11.598 11.598 0 0 1-16.4-16.4l9.244-9.244A178.683 178.683 0 0 1 8.803 139.53a156.078 156.078 0 0 1-6.854-12.84 62.84 62.84 0 0 1-.383-.835l-.116-.243-.023-.081-.012-.023v-.012c-.035 0-.035-.012 10.636-4.581l-10.659 4.58a11.598 11.598 0 0 1 6.09-15.24Z" style="clip-rule:evenodd;fill:currentColor;fill-rule:evenodd;stroke-width:12"/></svg>
