<svg xmlns="http://www.w3.org/2000/svg" version="1.0" width="256" height="256"><g style="fill:none" transform="matrix(11.8895 0 0 11.8743 -14.358 -13.916)"><path d="M2.69 12.825a.75.75 0 0 0-1.38.59Zm12.897 6.624-.274-.698Zm-6.546.409a.75.75 0 1 0-1.257-.818Zm13.648-6.443a.75.75 0 0 0-1.378-.59ZM19 17.25l-.513-.547Zm-7.75 5.371c-7.5.92-3.75.46 0 0Zm-5.72-4.84a.75.75 0 0 0-1.06-1.062ZM12 19.37c-3.224 0-5.539-1.605-7.075-3.26a13.637 13.637 0 0 1-1.702-2.28 11.707 11.707 0 0 1-.507-.946 3.903 3.903 0 0 1-.022-.049l-.004-.01-.001-.001L2 13.12a76 76 0 0 0-.69.296h.001l.001.003.003.006a4.271 4.271 0 0 0 .04.088 13.202 13.202 0 0 0 .58 1.084c.41.69 1.034 1.61 1.89 2.533C5.54 18.975 8.224 20.87 12 20.87Zm3.313-.62c-.97.383-2.071.62-3.313.62v1.5c1.438 0 2.725-.276 3.862-.723ZM22 13.12l-.69-.296h.001v.002a2.651 2.651 0 0 1-.035.075 12.349 12.349 0 0 1-.64 1.162 13.298 13.298 0 0 1-2.15 2.639l1.027 1.094a14.802 14.802 0 0 0 3.122-4.26l.039-.085.01-.024.004-.007v-.003h.001v-.001Zm-3.513 3.582c-.86.806-1.913 1.552-3.174 2.049l.549 1.396c1.474-.58 2.685-1.444 3.651-2.351ZM11.25 20.12c-7.5 2.587-3.75 1.293 0 0Zm-6.78-3.402c-2.98 4.855-1.49 2.428 0 0Z" style="fill:currentColor"/><path d="M2.648 13.317a.75.75 0 0 1-1.38-.59Zm12.898-6.624-.275.698ZM9 6.284a.75.75 0 1 1-1.258.818ZM6.33 4.931a.75.75 0 1 1 1.257-.818Zm16.318 7.795a.75.75 0 0 1-1.38.591Zm-3.69-3.833-.513.547Zm.97-2.03a.75.75 0 1 1 1.06 1.06Zm-8.72-3.341a.75.75 0 0 1 1.5 0Zm5.122.59a.75.75 0 1 1 1.257.819ZM5.489 8.363a.75.75 0 0 1-1.061 1.061Zm-2.561-.439a.75.75 0 0 1 1.06-1.06Zm9.03-1.151c-3.224 0-5.538 1.605-7.075 3.26a13.637 13.637 0 0 0-1.702 2.28 11.707 11.707 0 0 0-.506.946l-.023.048-.004.01v.002l-.69-.296a76 76 0 0 1-.689-.296v-.001l.001-.002.003-.006a4.271 4.271 0 0 1 .04-.088 13.202 13.202 0 0 1 .58-1.084 15.13 15.13 0 0 1 1.89-2.533c1.714-1.846 4.4-3.74 8.175-3.74Zm3.313.619a8.963 8.963 0 0 0-3.313-.62v-1.5c1.438 0 2.725.277 3.862.724Zm-7.529-.289L6.33 4.931l1.257-.818L9 6.284Zm14.216 5.92a159.692 159.692 0 0 0-.689.296v-.002a2.651 2.651 0 0 0-.035-.076 12.349 12.349 0 0 0-.64-1.162 13.298 13.298 0 0 0-2.149-2.638l1.027-1.094a14.802 14.802 0 0 1 3.122 4.26l.038.085.01.024.004.007v.003h.001v.001ZM18.445 9.44c-.859-.806-1.913-1.553-3.174-2.049l.55-1.396c1.473.58 2.684 1.444 3.65 2.351Zm-.017-1.077 1.5-1.5 1.06 1.06-1.5 1.5Zm-7.22-2.341v-2.5h1.5v2.5Zm3.709.262 1.413-2.171 1.257.818-1.413 2.171ZM4.428 9.424l-1.5-1.5 1.06-1.061 1.5 1.5Z" style="fill:currentColor"/><path style="fill:currentColor" d="M16.718 13.153A4.718 4.718 0 0 1 12 17.871a4.718 4.718 0 0 1-4.718-4.718A4.718 4.718 0 0 1 12 8.435a4.718 4.718 0 0 1 4.718 4.718Z"/></g></svg>
