<svg xmlns="http://www.w3.org/2000/svg" height="256" width="256" viewBox="0 0 256 256"><path d="M220.459 163.149v58.479H35.54v-58.48H0v75.67C0 248.306 7.945 256 17.797 256h220.406c9.843 0 17.797-7.686 17.797-17.182v-75.67ZM131.218 2.254l50.884 59.478s7.742 7.07-.654 7.07h-28.673v86.584s1.148 4.219-5.429 4.219h-40.36c-4.733 0-4.627-3.553-4.627-3.553V70.588H75.893c-10.187 0-2.516-7.404-2.516-7.404S116.67 7.59 122.717 1.758c4.343-4.227 8.51.496 8.51.496Z" style="fill:currentColor;stroke-width:8"/></svg>
