<?xml version="1.0" encoding="UTF-8" standalone="no"?>
<svg
   xmlns:dc="http://purl.org/dc/elements/1.1/"
   xmlns:cc="http://creativecommons.org/ns#"
   xmlns:rdf="http://www.w3.org/1999/02/22-rdf-syntax-ns#"
   xmlns:svg="http://www.w3.org/2000/svg"
   xmlns="http://www.w3.org/2000/svg"
   xmlns:sodipodi="http://sodipodi.sourceforge.net/DTD/sodipodi-0.dtd"
   xmlns:inkscape="http://www.inkscape.org/namespaces/inkscape"
   width="256"
   height="256"
   viewBox="0 0 256 256"
   version="1.1"
   id="svg8"
   sodipodi:docname="eye.svg"
   style="fill:none"
   inkscape:version="0.92.4 (5da689c313, 2019-01-14)">
  <metadata
     id="metadata14">
    <rdf:RDF>
      <cc:Work
         rdf:about="">
        <dc:format>image/svg+xml</dc:format>
        <dc:type
           rdf:resource="http://purl.org/dc/dcmitype/StillImage" />
        <dc:title></dc:title>
      </cc:Work>
    </rdf:RDF>
  </metadata>
  <defs
     id="defs12" />
  <sodipodi:namedview
     pagecolor="#ffffff"
     bordercolor="#666666"
     borderopacity="1"
     objecttolerance="10"
     gridtolerance="10"
     guidetolerance="10"
     inkscape:pageopacity="0"
     inkscape:pageshadow="2"
     inkscape:window-width="1920"
     inkscape:window-height="1027"
     id="namedview10"
     showgrid="false"
     inkscape:pagecheckerboard="true"
     inkscape:zoom="1.668772"
     inkscape:cx="93.570588"
     inkscape:cy="220.75443"
     inkscape:window-x="0"
     inkscape:window-y="36"
     inkscape:window-maximized="1"
     inkscape:current-layer="svg8" />
  <path
     id="circle6"
     style="fill:currentColor;stroke-width:11.83285999"
     d="M 184.41092,142.24516 A 56.094646,55.561499 0 0 1 128.31628,197.80666 56.094646,55.561499 0 0 1 72.221632,142.24516 56.094646,55.561499 0 0 1 128.31628,86.683649 56.094646,55.561499 0 0 1 184.41092,142.24516 Z M 17.125703,144.17627 A 8.9220773,8.8372783 0 0 1 0.7181965,137.22813 Z M 170.47643,66.16876 167.20681,74.388753 Z M 92.647787,61.352174 A 8.9204672,8.8356834 0 1 1 77.6908,70.985346 Z M 60.90283,45.418577 A 8.9171227,8.8323707 0 1 1 75.847928,35.785405 Z M 254.91564,137.21636 A 8.9244162,8.839595 0 0 1 238.50813,144.17627 Z M 211.0434,92.077047 204.94409,98.51879 Z M 222.5762,68.170764 A 8.9171227,8.8323707 0 1 1 235.17907,80.653848 Z M 118.8998,28.825497 A 8.9171227,8.8323707 0 0 1 136.73404,28.825497 Z M 179.7978,35.773628 A 8.9187277,8.8339604 0 1 1 194.74289,45.418577 Z M 50.903764,85.835505 A 8.9199816,8.8352024 0 0 1 38.289007,98.33037 Z M 20.454761,80.665625 A 8.9171227,8.8323707 0 0 1 33.057629,68.182541 Z M 127.81692,67.11088 C 89.485181,67.11088 61.972885,86.012153 43.698728,105.50225 A 162.13707,160.59605 0 0 0 23.462805,132.35267 139.19034,137.86741 0 0 0 17.446719,143.49323 L 17.173261,144.0585 17.125703,144.17627 V 144.19982 L 8.9219502,140.71398 A 903.60176,895.01356 0 0 1 0.730086,137.22813 V 137.21636 L 0.7419755,137.1928 0.777644,137.12215 A 50.780041,50.297407 0 0 1 1.2532239,136.08582 156.96514,155.47328 0 0 1 8.1491332,123.3201 C 13.023826,115.19431 20.442873,104.35993 30.620281,93.490226 50.998879,71.750818 82.934068,49.446138 127.81692,49.446138 Z M 167.20681,74.400529 A 106.56556,105.55272 0 0 0 127.81692,67.099103 V 49.434362 C 144.91401,49.434362 160.2158,52.69645 173.73415,57.960544 Z M 77.6908,70.997123 60.90283,45.418577 75.847928,35.785405 92.647787,61.352174 Z M 246.71189,140.71398 A 1898.6575,1880.6119 0 0 0 238.52002,144.19982 V 144.17627 A 31.519056,31.219486 0 0 0 238.10389,143.28126 146.8234,145.42793 0 0 0 230.49461,129.59696 158.10653,156.60382 0 0 0 204.94409,98.53057 L 217.15459,85.647082 A 175.98833,174.31567 0 0 1 254.2736,135.81495 L 254.72541,136.81595 254.8443,137.09859 254.89186,137.18103 V 137.21636 H 254.90375 V 137.22813 Z M 204.94409,98.51879 C 194.731,89.026935 182.19948,80.229894 167.20681,74.388753 L 173.74604,57.948767 C 191.25927,64.779133 205.65745,74.954025 217.14271,85.635305 Z M 204.74196,85.835505 222.5762,68.170764 235.17907,80.653848 217.34482,98.31859 Z M 118.8998,58.266732 V 28.825497 H 136.73404 V 58.266732 Z M 162.99794,61.352174 179.7978,35.785405 194.74289,45.418577 177.94303,70.985346 Z M 38.289007,98.33037 20.454761,80.665625 33.057629,68.170764 50.891874,85.835505 Z M 17.625061,138.38223 A 8.9220762,8.8372771 0 0 0 1.2175554,145.33036 Z M 170.9639,216.38973 167.70618,208.16974 Z M 93.135257,221.20632 A 8.9171227,8.8323707 0 1 0 78.190159,211.57315 Z M 255.4031,145.33036 A 8.9171227,8.8323707 0 0 0 239.01938,138.38223 Z M 211.54275,190.49322 205.44344,184.05147 Z M 119.39915,253.74477 C 30.227928,264.57914 74.813542,259.16196 119.39915,253.74477 Z M 51.391233,196.74654 A 8.9199852,8.835206 0 0 0 38.788365,184.2399 Z M 128.31628,215.45939 C 89.98454,215.45939 62.460354,196.55812 44.198087,177.06801 A 162.13707,160.59605 0 0 1 23.962164,150.21761 139.19034,137.86741 0 0 1 17.934188,139.07705 46.404707,45.963657 0 0 1 17.672619,138.49999 L 17.625061,138.38223 17.613172,138.37046 9.4213082,141.85629 A 903.60176,895.01356 0 0 0 1.2175554,145.34214 H 1.2294449 L 1.2413344,145.37746 1.2770029,145.44813 A 50.780041,50.297407 0 0 0 1.7525828,146.48446 156.96514,155.47328 0 0 0 8.6484922,159.25018 C 13.523185,167.37596 20.942232,178.21033 31.119641,189.08004 51.510127,210.80767 83.421538,233.12412 128.31628,233.12412 Z M 167.70618,208.15796 C 156.17336,212.66836 143.08303,215.45939 128.31628,215.45939 V 233.12412 C 145.41337,233.12412 160.71515,229.87382 174.23351,224.60972 Z M 247.21124,141.85629 239.00749,138.37046 H 239.01938 V 138.39401 A 31.519056,31.219486 0 0 1 238.60324,139.27724 146.8234,145.42793 0 0 1 230.99397,152.96153 158.10653,156.60382 0 0 1 205.43155,184.0397 L 217.64206,196.92318 A 175.98833,174.31567 0 0 0 254.76108,146.75532 L 255.22476,145.75431 255.34366,145.47168 255.39122,145.38925 V 145.35392 H 255.4031 V 145.34214 Z M 205.44344,184.0397 C 195.21847,193.53155 182.69884,202.31682 167.70618,208.16974 L 174.23351,224.60972 C 191.75863,217.77935 206.15681,207.60447 217.64206,196.92318 Z M 119.39915,224.29175 C 30.227928,254.75755 74.813542,239.51876 119.39915,224.29175 Z M 38.788365,184.22812 C 3.3576648,241.403 21.073015,212.82145 38.788365,184.22812 Z"
     inkscape:connector-curvature="0" />
</svg>
