<svg xmlns="http://www.w3.org/2000/svg" width="800" height="800" viewBox="0 0 24 24" fill="none"><path d="M1.606 6.08a1 1 0 0 1 1.313.526L2 7l.92-.394v-.001c0-.001 0 0 0 0l.003.009.021.045c.02.042.051.108.094.194.086.172.219.424.4.729a13.37 13.37 0 0 0 1.67 2.237c.19.204.386.402.59.592C7.18 11.8 9.251 13 12 13a8.706 8.706 0 0 0 3.22-.602c1.227-.483 2.254-1.21 3.096-1.998a13.053 13.053 0 0 0 2.733-3.725l.027-.058.005-.011c.535-1.2 2.339-.427 1.838.788L22 7l.92.394-.003.005-.004.008-.011.026-.04.087c-.222.463-.47.913-.741 1.348-.5.803-1.072 1.558-1.711 2.256 1.8 2.523 1.978 3.27-1.457 1.372-.59.479-1.226.9-1.897 1.256 1.029 3.796.617 3.176-1.88.779-.679.208-1.404.355-2.176.424-.376 3.76-1.665 3.849-2 .001-.775-.07-1.5-.217-2.177-.425-3.424 3.14-3.64 1.893-1.879-.779-.7-.37-1.332-.8-1.897-1.257-2.153 1.004-4.189 1.793-1.457-1.371a15.406 15.406 0 0 1-1.87-2.519 13.457 13.457 0 0 1-.624-1.179l-.01-.021-.002-.007-.001-.002v-.001C1.08 7.395 1.08 7.394 2 7l-.919.395a1 1 0 0 1 .525-1.314Z" fill="currentColor"/></svg>
